<svg width="135" height="33" viewBox="0 0 135 33" fill="none" xmlns="http://www.w3.org/2000/svg">
<path d="M49.6121 23.3329V8.97603H54.1519L57.1203 15.9604L60.2051 8.97603H64.5897V23.3329H61.2722V14.1561L58.653 20.0735H55.5488L52.9297 14.1173V23.3329H49.6121Z" fill="black"/>
<path d="M67.0807 23.3329V8.97603H77.2275V11.8862H70.4371V14.6606H76.3544V17.4349H70.4371V20.4227H77.3245V23.3329H67.0807Z" fill="black"/>
<path d="M92.772 23.3329V8.97603H97.3119L100.28 15.9604L103.365 8.97603H107.75V23.3329H104.432V14.1561L101.813 20.0735H98.7088L96.0896 14.1173V23.3329H92.772Z" fill="black"/>
<path d="M110.241 23.3329V8.97603H120.387V11.8862H113.597V14.6606H119.514V17.4349H113.597V20.4227H120.484V23.3329H110.241Z" fill="black"/>
<path d="M122.84 23.3329V8.97603H128.913C129.973 8.97603 130.898 9.15711 131.687 9.51926C132.476 9.88142 133.084 10.3988 133.511 11.0714C133.937 11.7439 134.151 12.5458 134.151 13.4771C134.151 14.4342 133.918 15.2555 133.452 15.941C133 16.6265 132.36 17.1439 131.532 17.4931L134.5 23.3329H130.794L128.137 17.9588H126.196V23.3329H122.84ZM128.874 11.8668H126.196V15.262H128.874C129.456 15.262 129.921 15.1068 130.271 14.7964C130.62 14.486 130.794 14.0785 130.794 13.5741C130.794 13.0567 130.62 12.6428 130.271 12.3324C129.921 12.022 129.456 11.8668 128.874 11.8668Z" fill="black"/>
<path d="M85.9562 23.3568C85.0108 23.3568 84.204 23.2498 83.5359 23.0357C82.8804 22.809 82.3321 22.5193 81.8909 22.1667C81.4623 21.8141 81.1156 21.4426 80.8509 21.0521C80.5988 20.6617 80.4097 20.2902 80.2836 19.9376C80.1702 19.585 80.0945 19.3016 80.0567 19.0875C80.0189 18.8608 80 18.7475 80 18.7475H83.309C83.309 18.7475 83.3342 18.8482 83.3846 19.0497C83.4351 19.2387 83.5485 19.459 83.725 19.7109C83.9141 19.9628 84.1914 20.1895 84.557 20.391C84.9351 20.5799 85.4394 20.6743 86.0697 20.6743C86.8512 20.6743 87.4122 20.5169 87.7525 20.2021C88.1055 19.8872 88.282 19.5283 88.282 19.1253C88.282 18.7601 88.1496 18.4704 87.8849 18.2563C87.6328 18.0422 87.2168 17.8785 86.6369 17.7652L84.765 17.444C83.9834 17.3055 83.246 17.0851 82.5527 16.7829C81.872 16.4806 81.3173 16.0524 80.8887 15.4983C80.4727 14.9442 80.2647 14.2264 80.2647 13.3448C80.2647 12.4758 80.479 11.7202 80.9076 11.0779C81.3488 10.423 81.9728 9.913 82.7796 9.54778C83.5863 9.18256 84.5381 8.99995 85.6348 8.99995C86.492 8.99995 87.2231 9.107 87.8282 9.32109C88.4332 9.52259 88.9375 9.78706 89.3408 10.1145C89.7442 10.4293 90.0657 10.7694 90.3052 11.1346C90.5573 11.4872 90.7401 11.8272 90.8535 12.1547C90.9796 12.4821 91.0615 12.7466 91.0993 12.9481C91.1372 13.1496 91.1561 13.2503 91.1561 13.2503H87.9227C87.9227 13.2503 87.8975 13.1748 87.8471 13.0236C87.8093 12.8599 87.7084 12.6773 87.5445 12.4758C87.3933 12.2617 87.1601 12.0728 86.8449 11.9091C86.5298 11.7454 86.1012 11.6635 85.5591 11.6635C84.8028 11.6635 84.267 11.8272 83.9519 12.1547C83.6368 12.4695 83.4792 12.8033 83.4792 13.1559C83.4792 13.5463 83.6494 13.8422 83.9897 14.0437C84.3427 14.2452 84.7839 14.3964 85.3133 14.4971L87.2987 14.8371C88.0677 14.9757 88.7736 15.2087 89.4165 15.5361C90.0594 15.8635 90.5762 16.3043 90.967 16.8584C91.3578 17.4126 91.5532 18.0989 91.5532 18.9175C91.5532 19.7613 91.3326 20.5232 90.8914 21.2033C90.4628 21.8707 89.8325 22.3997 89.0005 22.7901C88.1685 23.1679 87.1538 23.3568 85.9562 23.3568Z" fill="black"/>
<g clip-path="url(#clip0_599_53139)">
<path d="M40.636 0V24.6021H28.9927V7.78611H26.046L25.1202 9.16586L20.5834 15.9338L16.0466 9.17099V0H40.636Z" fill="#FC3232"/>
<path d="M25.1201 24.6022V32.4062H0.5V7.78613H12.1715V24.6022H16.0466V15.4979L19.5318 20.9117H21.6322L25.1175 15.4979V24.6022H25.1201Z" fill="#0666CE"/>
<path d="M28.9926 7.78613V24.6022H25.1175V15.4979L21.6322 20.9117H19.5318L16.0465 15.4979V24.6022H12.1714V7.78613H15.1181L16.0465 9.17101L20.5833 15.9338L25.12 9.16588L26.0458 7.78613H28.9926Z" fill="white"/>
</g>
<defs>
<clipPath id="clip0_599_53139">
<rect width="40.1359" height="32.4062" fill="white" transform="translate(0.5)"/>
</clipPath>
</defs>
</svg>
